Normalized EMG Linear Envelopes
nRows=127
nColumns=4

endheader
time	 med_gas_r	  soleus_r	 tib_ant_r	
2.79133	  0.075109	  0.041037	  0.017904	
2.8629	  0.068247	  0.046002	  0.018201	
2.93448	  0.064588	  0.047221	  0.018756	
3.00605	  0.064861	  0.044678	  0.019428	
3.07762	  0.067901	  0.041176	  0.019665	
3.14919	  0.072308	  0.039239	  0.019089	
3.22077	  0.077044	  0.039393	  0.018001	
3.29234	  0.081382	  0.040606	  0.016995	
3.36391	  0.084447	  0.042042	  0.016345	
3.43548	  0.085337	  0.043643	  0.016133	
3.50706	  0.084316	  0.045390	  0.016458	
3.57863	  0.082385	  0.047668	  0.017369	
3.6502	  0.079756	  0.051196	  0.018909	
3.72177	  0.076605	  0.054942	  0.020784	
3.79335	  0.074056	  0.056154	  0.021958	
3.86492	  0.073345	  0.053917	  0.021543	
3.93649	  0.075267	  0.050740	  0.019954	
4.00806	  0.080293	  0.050067	  0.018451	
4.07964	  0.087864	  0.053370	  0.017840	
4.15121	  0.094894	  0.058753	  0.017865	
4.22278	  0.097010	  0.062301	  0.017723	
4.29435	  0.093001	  0.061987	  0.017140	
4.36593	  0.085930	  0.059012	  0.016752	
4.4375	  0.079888	  0.055483	  0.017250	
4.50907	  0.077437	  0.053071	  0.018484	
4.58065	  0.078456	  0.052700	  0.019654	
4.65222	  0.080915	  0.053445	  0.020133	
4.72379	  0.083861	  0.053074	  0.019866	
4.79536	  0.087555	  0.050600	  0.019291	
4.86694	  0.089769	  0.046633	  0.019032	
4.93851	  0.085115	  0.041253	  0.019201	
5.01008	  0.071043	  0.034143	  0.019238	
5.08165	  0.057319	  0.028444	  0.019273	
5.15323	  0.071393	  0.035231	  0.021825	
5.2248	  0.149889	  0.073019	  0.031401	
5.29637	  0.305928	  0.153324	  0.050245	
5.36794	  0.489392	  0.257753	  0.072950	
5.43952	  0.607826	  0.341112	  0.088543	
5.51109	  0.614752	  0.370645	  0.091057	
5.58266	  0.548434	  0.352447	  0.085053	
5.65423	  0.474713	  0.315189	  0.078752	
5.72581	  0.428128	  0.282668	  0.075847	
5.79738	  0.407458	  0.264975	  0.075687	
5.86895	  0.401078	  0.263505	  0.076843	
5.94052	  0.408643	  0.275864	  0.078022	
6.0121	  0.439129	  0.298075	  0.078752	
6.08367	  0.492430	  0.326108	  0.080360	
6.15524	  0.548936	  0.354860	  0.083953	
6.22681	  0.583585	  0.377581	  0.088362	
6.29839	  0.590314	  0.389785	  0.092000	
6.36996	  0.584469	  0.394488	  0.094484	
6.44153	  0.583086	  0.399700	  0.095772	
6.5131	  0.591702	  0.407234	  0.095999	
6.58468	  0.607816	  0.412211	  0.096076	
6.65625	  0.622755	  0.414487	  0.096768	
6.72782	  0.618651	  0.416173	  0.097190	
6.7994	  0.586476	  0.412086	  0.096043	
6.87097	  0.547925	  0.400308	  0.094298	
6.94254	  0.533478	  0.393044	  0.094364	
7.01411	  0.547566	  0.398965	  0.096934	
7.08569	  0.574051	  0.407882	  0.100184	
7.15726	  0.595519	  0.405855	  0.101349	
7.22883	  0.598022	  0.389277	  0.098382	
7.3004	  0.577134	  0.362489	  0.091218	
7.37198	  0.543476	  0.337109	  0.082417	
7.44355	  0.513289	  0.326147	  0.075412	
7.51512	  0.494267	  0.331815	  0.072085	
7.58669	  0.486626	  0.348591	  0.073080	
7.65827	  0.491103	  0.372143	  0.078247	
7.72984	  0.503981	  0.395086	  0.085591	
7.80141	  0.514969	  0.406020	  0.091952	
7.87298	  0.518604	  0.402046	  0.095364	
7.94456	  0.517156	  0.393140	  0.096278	
8.01613	  0.513793	  0.390573	  0.095963	
8.0877	  0.510263	  0.395891	  0.094102	
8.15927	  0.506532	  0.402873	  0.090145	
8.23085	  0.499437	  0.405942	  0.085677	
8.30242	  0.485969	  0.401260	  0.082745	
8.37399	  0.470429	  0.387573	  0.081897	
8.44556	  0.462655	  0.371182	  0.082731	
8.51714	  0.466341	  0.360961	  0.084206	
8.58871	  0.478350	  0.359750	  0.085010	
8.66028	  0.497582	  0.366068	  0.084983	
8.73185	  0.522132	  0.378062	  0.085598	
8.80343	  0.545767	  0.391911	  0.088435	
8.875	  0.565600	  0.400586	  0.093211	
8.94657	  0.581643	  0.397584	  0.097793	
9.01815	  0.589208	  0.383195	  0.100011	
9.08972	  0.582670	  0.364409	  0.099017	
9.16129	  0.563094	  0.345279	  0.095982	
9.23286	  0.538860	  0.323566	  0.093268	
9.30444	  0.523177	  0.300317	  0.091514	
9.37601	  0.528542	  0.283965	  0.089244	
9.44758	  0.553318	  0.279565	  0.085907	
9.51915	  0.573014	  0.281895	  0.082973	
9.59073	  0.561842	  0.288131	  0.082547	
9.6623	  0.528344	  0.306960	  0.085867	
9.73387	  0.510157	  0.343377	  0.091916	
9.80544	  0.527068	  0.387619	  0.097823	
9.87702	  0.560464	  0.425596	  0.101166	
9.94859	  0.585001	  0.447303	  0.101033	
10.0202	  0.591001	  0.444789	  0.097187	
10.0917	  0.563056	  0.408174	  0.088741	
10.1633	  0.475193	  0.330818	  0.074583	
10.2349	  0.334161	  0.228135	  0.056756	
10.3065	  0.194078	  0.136469	  0.041046	
10.378	  0.104093	  0.079875	  0.031975	
10.4496	  0.068063	  0.055026	  0.029730	
10.5212	  0.062964	  0.048331	  0.031513	
10.5927	  0.069139	  0.049348	  0.033159	
10.6643	  0.077376	  0.052380	  0.031669	
10.7359	  0.084491	  0.055328	  0.027728	
10.8075	  0.090077	  0.057131	  0.024118	
10.879	  0.094596	  0.057295	  0.022445	
10.9506	  0.098496	  0.056584	  0.022422	
11.0222	  0.102234	  0.055753	  0.023014	
11.0937	  0.105104	  0.055109	  0.023434	
11.1653	  0.105037	  0.055300	  0.023340	
11.2369	  0.101851	  0.056806	  0.022650	
11.3085	  0.098105	  0.059274	  0.021703	
11.38	  0.094875	  0.061851	  0.021359	
11.4516	  0.089987	  0.063429	  0.022226	
11.5232	  0.082343	  0.062698	  0.023875	
11.5948	  0.075383	  0.059361	  0.025015	
11.6663	  0.073362	  0.055383	  0.024106	
11.7379	  0.076128	  0.053261	  0.020296	
11.8095	  0.080715	  0.053212	  0.014366	
